<?xml version="1.0" encoding="UTF-8" standalone="no"?>
<!-- Created with Inkscape (http://www.inkscape.org/) -->

<svg
   xmlns:dc="http://purl.org/dc/elements/1.1/"
   xmlns:cc="http://creativecommons.org/ns#"
   xmlns:rdf="http://www.w3.org/1999/02/22-rdf-syntax-ns#"
   xmlns:svg="http://www.w3.org/2000/svg"
   xmlns="http://www.w3.org/2000/svg"
   xmlns:sodipodi="http://sodipodi.sourceforge.net/DTD/sodipodi-0.dtd"
   xmlns:inkscape="http://www.inkscape.org/namespaces/inkscape"
   width="210mm"
   height="297mm"
   viewBox="0 0 210 297"
   version="1.1"
   id="svg6794"
   inkscape:version="0.92.2 (5c3e80d, 2017-08-06)"
   sodipodi:docname="PiPod.svg"
   inkscape:export-filename="/home/martlugt/PiPod.png"
   inkscape:export-xdpi="57.410282"
   inkscape:export-ydpi="57.410282">
  <defs
     id="defs6788" />
  <sodipodi:namedview
     id="base"
     pagecolor="#ffffff"
     bordercolor="#666666"
     borderopacity="1.0"
     inkscape:pageopacity="0.0"
     inkscape:pageshadow="2"
     inkscape:zoom="0.49497475"
     inkscape:cx="265.40954"
     inkscape:cy="637.609"
     inkscape:document-units="mm"
     inkscape:current-layer="layer1"
     showgrid="false"
     inkscape:window-width="1366"
     inkscape:window-height="768"
     inkscape:window-x="0"
     inkscape:window-y="0"
     inkscape:window-maximized="0" />
  <metadata
     id="metadata6791">
    <rdf:RDF>
      <cc:Work
         rdf:about="">
        <dc:format>image/svg+xml</dc:format>
        <dc:type
           rdf:resource="http://purl.org/dc/dcmitype/StillImage" />
        <dc:title />
      </cc:Work>
    </rdf:RDF>
  </metadata>
  <g
     inkscape:label="Layer 1"
     inkscape:groupmode="layer"
     id="layer1">
    <path
       style="fill:none;stroke:#000000;stroke-width:26.45669365;stroke-linecap:round;stroke-linejoin:round;stroke-miterlimit:4;stroke-dasharray:none;stroke-opacity:1;paint-order:normal"
       d="M 543.64905 383.68615 A 198.57142 198.57142 0 0 1 579.80521 369.73779 "
       id="path7617"
       transform="scale(0.26458333)"
       inkscape:export-xdpi="62.342388"
       inkscape:export-ydpi="62.342388" />
    <path
       style="fill:none;stroke:#000000;stroke-width:26.45669365;stroke-linecap:round;stroke-linejoin:round;stroke-miterlimit:4;stroke-dasharray:none;stroke-opacity:1;paint-order:normal"
       d="M 500.3812 413.16972 A 198.57142 198.57142 0 0 1 543.64905 383.68615 "
       id="path7615"
       transform="scale(0.26458333)"
       inkscape:export-xdpi="62.342388"
       inkscape:export-ydpi="62.342388" />
    <path
       style="fill:none;stroke:#000000;stroke-width:26.45669365;stroke-linecap:round;stroke-linejoin:round;stroke-miterlimit:4;stroke-dasharray:none;stroke-opacity:1;paint-order:normal"
       d="M 462.56229 458.96234 A 198.57142 198.57142 0 0 1 500.3812 413.16972 "
       id="path7613"
       transform="scale(0.26458333)"
       inkscape:export-xdpi="62.342388"
       inkscape:export-ydpi="62.342388" />
    <path
       style="fill:none;stroke:#000000;stroke-width:26.45669365;stroke-linecap:round;stroke-linejoin:round;stroke-miterlimit:4;stroke-dasharray:none;stroke-opacity:1;paint-order:normal"
       d="M 442.49378 617.59269 A 198.57142 198.57142 0 0 1 434.28566 561.09115 A 198.57142 198.57142 0 0 1 462.56229 458.96234 "
       id="path7611"
       transform="scale(0.26458333)"
       inkscape:export-xdpi="62.342388"
       inkscape:export-ydpi="62.342388" />
    <path
       style="fill:none;stroke:#000000;stroke-width:26.45669365;stroke-linecap:round;stroke-linejoin:round;stroke-miterlimit:4;stroke-dasharray:none;stroke-opacity:1;paint-order:normal"
       d="M 511.80049 718.49481 A 198.57142 198.57142 0 0 1 442.49378 617.59269 "
       id="path7609"
       transform="scale(0.26458333)"
       inkscape:export-xdpi="62.342388"
       inkscape:export-ydpi="62.342388" />
    <path
       style="fill:none;stroke:#000000;stroke-width:26.45669365;stroke-linecap:round;stroke-linejoin:round;stroke-miterlimit:4;stroke-dasharray:none;stroke-opacity:1;paint-order:normal"
       d="M 618.08259 759.11217 A 198.57142 198.57142 0 0 1 511.80049 718.49481 "
       id="path7607"
       transform="scale(0.26458333)"
       inkscape:export-xdpi="62.342388"
       inkscape:export-ydpi="62.342388" />
    <path
       style="fill:none;stroke:#000000;stroke-width:26.45669365;stroke-linecap:round;stroke-linejoin:round;stroke-miterlimit:4;stroke-dasharray:none;stroke-opacity:1;paint-order:normal"
       d="m 632.85708,759.66258 c -4.92996,0 -9.8582,-0.1836 -14.77449,-0.55041"
       id="path6860"
       transform="scale(0.26458333)"
       inkscape:connector-curvature="0"
       sodipodi:nodetypes="cc"
       inkscape:export-xdpi="62.342388"
       inkscape:export-ydpi="62.342388" />
    <g
       transform="matrix(4.236221,0,0,4.236221,-3.7145859,35.15273)"
       id="g7549"
       inkscape:export-xdpi="62.342388"
       inkscape:export-ydpi="62.342388">
      <path
         style="stroke-width:16.01091385"
         d="M 531.31055 132.39062 C 523.52521 132.30718 516.85267 137.14701 509.50586 139.24023 C 491.93138 132.86088 488.67841 140.86696 479.10938 144.05664 C 459.9088 139.24086 455.09249 148.87233 445.46094 158.50391 L 434.26562 158.50391 C 405.43348 176.07838 391.05015 209.72629 386.23438 227.30078 C 381.4186 209.72629 367.03332 174.51482 338.20117 158.50391 L 327.00586 158.50391 C 317.3743 148.87233 312.55801 140.86696 293.35742 144.05664 C 285.35196 140.86696 280.53738 132.86088 262.96289 139.24023 C 256.52101 137.67666 250.14022 132.86133 242.13477 132.86133 C 237.31899 132.86133 234.13023 134.48612 229.31445 137.67578 C 216.49322 134.48612 205.2967 132.85978 194.10156 140.86523 C 178.09065 139.23913 173.27672 142.49175 168.46094 148.87109 C 165.27126 148.87109 141.25457 145.68245 131.68555 161.69336 C 104.41696 158.5037 96.411411 177.70285 106.04297 195.27734 C 101.22719 203.2828 94.846717 211.28987 107.66797 227.30078 C 104.41575 235.30624 106.04315 244.93658 117.23828 257.75781 C 114.0486 270.57906 120.42704 278.5855 130.05859 284.96484 C 128.43249 302.60187 146.06899 312.1697 150.88477 315.35938 C 152.44839 324.99093 157.26425 334.62371 176.46484 339.37695 C 179.71706 353.82429 192.4767 357.01345 203.73438 360.20312 C 165.27065 382.65593 131.68555 413.05245 131.68555 485.10156 L 125.24219 494.73242 C 82.025224 523.50203 41.99846 609.99886 104.41602 680.42188 C 109.23179 702.87468 115.67339 718.88451 122.05273 736.45898 C 131.68431 806.94454 190.91291 840.53102 206.92383 843.7207 C 229.3141 861.35772 254.95669 877.36822 286.97852 890.18945 C 317.37424 922.21128 352.58645 935.0332 386.23438 935.0332 L 387.85938 935.0332 C 421.44476 935.0332 455.09341 922.21128 487.11523 890.18945 C 520.70064 878.99433 544.71713 861.35772 567.16992 843.7207 C 581.35287 840.89519 629.44148 814.21165 646.93359 759.16211 A 198.57142 198.57142 0 0 1 632.85742 759.66211 A 198.57142 198.57142 0 0 1 618.14258 758.92578 C 615.47572 766.28594 611.89865 773.32081 607.19727 779.67578 C 568.73356 834.1504 515.9478 835.71489 495.12109 821.33008 C 476.11276 803.80587 487.79599 751.59436 511.90039 718.26367 A 198.57142 198.57142 0 0 1 442.66016 617.63672 C 434.83445 611.0101 427.63912 603.1073 421.44531 593.98828 C 392.61316 549.14522 399.05496 493.10621 435.89258 469.08984 C 444.25884 463.85752 453.3857 460.52605 462.8418 458.96094 A 198.57142 198.57142 0 0 1 500.5 413.38477 C 481.75274 394.38817 470.51463 378.90895 479.10938 377.83984 C 502.70293 374.08919 524.86022 376.27106 543.83984 383.65039 A 198.57142 198.57142 0 0 1 579.86914 369.72656 C 575.7211 366.96396 571.47844 364.34221 567.16992 361.83008 C 578.36506 358.64042 591.18532 355.38677 594.375 341.00195 C 615.20169 336.18617 618.39146 326.6179 620.01758 316.98633 C 624.77082 313.79665 642.40735 304.16432 640.78125 286.58984 C 650.41281 280.14795 656.79319 270.57906 653.60352 257.75781 C 664.79865 246.56269 666.42405 236.93234 663.23438 227.30078 C 676.05563 211.28987 669.61456 203.2828 664.79883 195.27734 C 674.43034 177.70285 666.4248 158.5037 639.21875 161.69336 C 628.02363 145.68245 605.57054 148.87109 602.38086 148.87109 C 599.19118 144.05532 594.37615 139.23913 578.36523 140.86523 C 567.1701 131.23366 555.97447 132.86 544.7168 137.67578 C 539.77202 133.82745 535.38858 132.43434 531.31055 132.39062 z M 242.13477 152.06055 C 258.14568 158.50244 266.15079 164.88321 274.15625 172.88867 C 277.34593 169.69899 280.53644 166.50936 275.7832 158.50391 C 285.35222 164.88325 293.35693 171.26212 299.79883 179.26758 C 306.17817 174.51434 302.98828 169.69859 302.98828 164.88281 C 314.18342 172.88827 320.5629 182.51887 328.56836 192.08789 C 330.19446 190.52433 331.8212 187.27193 333.38477 180.89258 C 359.02724 206.53507 395.86416 268.95433 343.01562 292.9707 C 298.17256 256.1331 245.32553 228.92715 186.09766 209.72656 C 261.33645 248.12775 306.17894 280.14942 330.19531 307.35547 C 317.37408 357.01431 253.33082 358.63867 229.31445 358.63867 C 234.13023 357.01256 238.94531 353.82359 238.94531 349.00781 C 234.12953 342.62847 211.74032 345.81796 197.29297 337.8125 C 203.73486 336.1864 205.2986 336.18687 208.48828 331.37109 C 194.10347 326.61785 179.71835 323.36483 171.71289 315.35938 C 176.46613 315.35938 181.28076 316.9857 187.72266 312.16992 C 174.9014 305.79057 162.08078 300.97443 152.44922 289.7793 C 158.8911 289.7793 165.27126 289.77951 168.46094 286.58984 C 157.2658 280.14795 147.69491 272.14324 139.68945 262.57422 C 149.25847 264.13778 152.45007 262.57338 154.07617 260.94727 C 146.07071 252.94181 134.87437 244.93732 130.05859 233.74219 C 136.43795 235.30577 142.87952 236.93187 147.69531 233.74219 C 141.25342 228.92641 128.43209 225.73748 122.05273 209.72656 C 128.43209 209.72656 136.43835 211.29014 138.06445 209.72656 C 134.87477 196.90533 128.43293 188.89804 123.67969 180.89258 C 138.06449 180.89258 162.08118 180.89368 160.45508 179.26758 L 150.88477 169.69922 C 165.26958 166.50956 181.28055 169.69788 190.91211 174.51367 C 195.7279 171.26145 190.91258 166.5083 184.4707 160.06641 C 197.29194 161.69251 208.48758 164.88259 218.11914 168.07227 C 222.93492 163.25649 214.92906 158.50329 210.11328 153.6875 C 229.31387 156.87718 237.31876 161.69291 245.32422 168.07227 C 251.76611 161.69291 245.32444 156.87633 242.13477 152.06055 z M 530.33203 152.06055 C 527.14235 156.87633 520.7007 161.69291 527.14258 168.07227 C 535.14804 163.25649 543.15292 158.50329 562.35352 153.6875 C 557.53774 158.50329 549.53188 163.25649 554.34766 168.07227 C 563.97923 164.88259 575.17484 161.69251 587.99609 160.06641 C 581.5542 164.88218 576.73891 169.69788 581.55469 174.51367 C 592.74982 171.26145 607.19722 166.50956 621.58203 169.69922 L 612.01172 179.26758 C 613.57528 180.89368 636.02926 180.89258 650.41406 180.89258 C 645.59828 188.89804 639.21896 196.90533 636.0293 209.72656 C 637.59292 211.29014 645.59717 209.72656 652.03906 209.72656 C 645.59717 225.73748 632.77562 228.92533 629.58594 235.30469 C 634.40172 238.5569 640.78273 238.5569 647.22461 235.30469 C 642.40883 246.56236 631.21249 252.94265 623.20703 262.57422 C 624.77066 264.13778 629.58634 265.76477 637.5918 264.13867 C 629.58634 272.14413 620.01744 280.14884 608.75977 288.1543 C 610.38587 289.7804 618.39213 289.78017 624.77148 291.34375 C 615.20245 300.97531 600.75568 307.355 589.56055 313.79688 C 596.00244 318.61267 600.75453 316.98633 605.57031 316.98633 C 597.56486 324.99179 581.55366 328.18227 568.73242 332.99805 C 571.98464 337.81383 573.54834 337.81338 579.99023 339.37695 C 565.54288 347.38241 544.71725 344.19313 538.33789 347.38281 C 539.96401 352.19859 543.15296 353.82399 547.96875 357.01367 C 523.95238 358.63979 459.90914 355.38734 447.08789 305.79102 C 471.10426 278.58498 515.94677 246.56333 591.18555 208.09961 C 531.95769 228.9263 479.10869 254.56868 434.26562 291.34375 C 379.85354 265.7638 415.06654 203.28395 440.64648 179.26758 C 442.27258 185.70946 443.89738 190.52539 445.46094 190.52539 C 453.46639 180.89382 459.9084 172.88742 471.10352 163.25586 C 471.10352 168.07164 467.91363 174.51346 474.29297 177.70312 C 480.67233 169.69767 487.11541 163.25631 498.31055 156.87695 C 493.49477 164.88241 496.68333 168.07204 499.93555 171.26172 C 507.941 164.88236 515.94723 156.87633 530.33203 152.06055 z M 386.23438 357.01367 C 423.07198 357.01367 469.47852 384.21973 469.47852 411.42578 C 469.47852 435.44215 437.4568 453.07812 386.23438 453.07812 C 336.57553 453.07812 302.98828 429.06213 302.98828 406.67188 C 302.98828 389.03484 344.58099 357.01367 386.23438 357.01367 z M 259.56836 373.92188 C 267.92134 373.85982 276.54869 374.61219 285.35156 376.21484 C 310.99403 381.03062 160.4542 512.30784 158.89062 481.91211 C 156.09967 414.65533 201.09747 374.35625 259.56836 373.92188 z M 295.07227 461.66406 C 309.651 461.56164 323.97383 465.49231 336.57422 473.90625 C 375.03793 497.92262 381.41721 553.95965 351.02148 598.80273 C 320.56323 642.01968 266.15206 658.032 229.31445 634.01562 C 190.91327 609.99925 184.47144 553.96025 214.92969 509.11719 C 234.3013 478.98825 265.22058 461.87379 295.07227 461.66406 z M 149.77539 513.42969 C 186.01334 513.75536 159.405 681.59547 126.86914 667.59961 C 90.031534 638.83 78.836978 552.33478 146.07031 513.93359 C 147.37198 513.58375 148.60642 513.41918 149.77539 513.42969 z M 387.85938 627.57227 C 437.45568 629.19837 479.10937 666.03672 479.10938 712.44336 C 479.10938 758.91254 439.08178 797.31445 387.85938 797.31445 C 336.57442 797.31445 296.54687 760.47695 296.54688 714.07031 L 296.54688 712.44336 C 296.54688 666.03672 336.57442 627.57227 387.85938 627.57227 z M 177.30859 673.39648 C 200.9133 672.6252 229.58342 691.32692 253.33008 718.88477 C 278.97255 749.28048 291.79461 805.31916 269.3418 821.33008 C 248.5151 834.15131 198.91852 829.3357 163.70703 778.11328 C 139.69066 734.89633 142.87971 691.61612 158.89062 678.85742 C 164.48624 675.35503 170.69928 673.61244 177.30859 673.39648 z M 394.87305 822.81836 C 430.45776 822.95142 472.7685 835.25048 474.29297 851.72656 C 474.29297 870.98969 429.45134 909.38977 386.23438 907.76367 C 341.39131 909.38977 296.54688 870.98837 296.54688 856.54102 C 296.54688 837.34042 351.02175 821.33091 387.85938 822.95703 C 390.15782 822.8554 392.50073 822.80949 394.87305 822.81836 z "
         transform="matrix(0.0624574,0,0,0.0624574,0.87686311,-8.2981341)"
         id="path7601" />
    </g>
  </g>
</svg>
